<?xml version="1.0" encoding="UTF-8" ?>
<!DOCTYPE svg PUBLIC "-//W3C//DTD SVG 1.1//EN" "http://www.w3.org/Graphics/SVG/1.1/DTD/svg11.dtd">
<svg width="68pt" height="68pt" viewBox="0 0 68 68" version="1.1" xmlns="http://www.w3.org/2000/svg">
<g id="#ffffffff">
<path fill="#ffffff" opacity="1.00" d=" M 0.00 0.00 L 31.45 0.00 C 22.25 0.85 13.43 5.35 7.63 12.58 C 3.30 17.71 0.95 24.20 0.00 30.78 L 0.00 0.00 Z" />
<path fill="#ffffff" opacity="1.00" d=" M 37.12 0.00 L 68.00 0.00 L 68.00 31.26 C 67.09 22.86 63.36 14.71 57.03 9.03 C 51.61 3.90 44.46 0.97 37.12 0.00 Z" />
<path fill="#ffffff" opacity="1.00" d=" M 20.32 17.08 C 26.93 17.02 33.54 17.09 40.15 17.04 C 42.95 20.07 46.48 22.63 48.73 26.04 C 48.80 34.66 48.68 43.29 48.78 51.91 C 39.29 51.97 29.80 51.97 20.32 51.91 C 20.38 40.30 20.37 28.69 20.32 17.08 M 23.65 20.53 C 23.72 29.88 23.71 39.24 23.66 48.59 C 30.93 48.64 38.20 48.65 45.47 48.58 C 45.39 41.64 45.43 34.71 45.45 27.77 C 42.97 27.77 40.50 27.74 38.03 27.70 C 38.10 25.30 38.12 22.90 38.12 20.50 C 33.30 20.50 28.47 20.46 23.65 20.53 Z" />
<path fill="#ffffff" opacity="1.00" d=" M 27.32 32.36 C 29.51 32.32 31.70 32.33 33.88 32.37 C 33.81 34.76 33.82 37.14 33.90 39.53 C 31.70 39.57 29.51 39.58 27.31 39.54 C 27.36 37.15 27.37 34.75 27.32 32.36 Z" />
<path fill="#ffffff" opacity="1.00" d=" M 36.04 32.37 C 37.97 32.34 39.91 32.35 41.85 32.41 C 41.82 33.01 41.78 34.21 41.75 34.81 C 39.84 34.86 37.93 34.85 36.02 34.78 C 36.02 34.18 36.03 32.97 36.04 32.37 Z" />
<path fill="#ffffff" opacity="1.00" d=" M 36.02 37.15 C 37.95 37.03 39.89 37.05 41.83 37.18 C 41.82 37.77 41.80 38.94 41.79 39.53 C 39.87 39.55 37.95 39.56 36.04 39.54 C 36.03 38.94 36.02 37.75 36.02 37.15 Z" />
<path fill="#ffffff" opacity="1.00" d=" M 0.00 36.65 C 0.78 44.42 4.04 51.94 9.49 57.57 C 15.04 63.48 22.81 66.95 30.79 68.00 L 0.00 68.00 L 0.00 36.65 Z" />
<path fill="#ffffff" opacity="1.00" d=" M 60.84 54.86 C 64.86 49.82 67.05 43.58 68.00 37.26 L 68.00 68.00 L 36.76 68.00 C 46.11 67.05 55.13 62.40 60.84 54.86 Z" />
<path fill="#ffffff" opacity="1.00" d=" M 27.25 44.23 C 27.29 43.58 27.38 42.28 27.43 41.63 C 32.21 41.70 36.99 41.61 41.77 41.70 C 41.76 42.33 41.74 43.60 41.73 44.24 C 36.90 44.29 32.07 44.29 27.25 44.23 Z" />
</g>
<g id="#41b0e1ff">
<path fill="#41b0e1" opacity="1.00" d=" M 31.45 0.00 L 37.12 0.00 C 44.46 0.97 51.61 3.90 57.03 9.03 C 63.36 14.71 67.09 22.86 68.00 31.26 L 68.00 37.26 C 67.05 43.58 64.86 49.82 60.84 54.86 C 55.13 62.40 46.11 67.05 36.76 68.00 L 30.79 68.00 C 22.81 66.95 15.04 63.48 9.49 57.57 C 4.04 51.94 0.78 44.42 0.00 36.65 L 0.00 30.78 C 0.95 24.20 3.30 17.71 7.63 12.58 C 13.43 5.35 22.25 0.85 31.45 0.00 M 20.32 17.08 C 20.37 28.69 20.38 40.30 20.32 51.91 C 29.80 51.97 39.29 51.97 48.78 51.91 C 48.68 43.29 48.80 34.66 48.73 26.04 C 46.48 22.63 42.95 20.07 40.15 17.04 C 33.54 17.09 26.93 17.02 20.32 17.08 Z" />
<path fill="#41b0e1" opacity="1.00" d=" M 23.65 20.53 C 28.47 20.46 33.30 20.50 38.12 20.50 C 38.12 22.90 38.10 25.30 38.03 27.70 C 40.50 27.74 42.97 27.77 45.45 27.77 C 45.43 34.71 45.39 41.64 45.47 48.58 C 38.20 48.65 30.93 48.64 23.66 48.59 C 23.71 39.24 23.72 29.88 23.65 20.53 M 27.32 32.36 C 27.37 34.75 27.36 37.15 27.31 39.54 C 29.51 39.58 31.70 39.57 33.90 39.53 C 33.82 37.14 33.81 34.76 33.88 32.37 C 31.70 32.33 29.51 32.32 27.32 32.36 M 36.04 32.37 C 36.03 32.97 36.02 34.18 36.02 34.78 C 37.93 34.85 39.84 34.86 41.75 34.81 C 41.78 34.21 41.82 33.01 41.85 32.41 C 39.91 32.35 37.97 32.34 36.04 32.37 M 36.02 37.15 C 36.02 37.75 36.03 38.94 36.04 39.54 C 37.95 39.56 39.87 39.55 41.79 39.53 C 41.80 38.94 41.82 37.77 41.83 37.18 C 39.89 37.05 37.95 37.03 36.02 37.15 M 27.25 44.23 C 32.07 44.29 36.90 44.29 41.73 44.24 C 41.74 43.60 41.76 42.33 41.77 41.70 C 36.99 41.61 32.21 41.70 27.43 41.63 C 27.38 42.28 27.29 43.58 27.25 44.23 Z" />
</g>
</svg>
