<?xml version="1.0" encoding="UTF-8" ?>
<!DOCTYPE svg PUBLIC "-//W3C//DTD SVG 1.1//EN" "http://www.w3.org/Graphics/SVG/1.1/DTD/svg11.dtd">
<svg width="68pt" height="69pt" viewBox="0 0 68 69" version="1.1" xmlns="http://www.w3.org/2000/svg">
<path fill="#ffffff" d=" M 0.00 0.00 L 68.00 0.00 L 68.00 32.88 C 67.32 18.30 56.41 4.97 42.16 1.67 C 29.83 -1.49 15.94 3.00 7.91 12.90 C 3.55 17.97 1.16 24.39 0.00 30.90 L 0.00 0.00 Z" />
<path fill="#41b0e1" d=" M 7.91 12.90 C 15.94 3.00 29.83 -1.49 42.16 1.67 C 56.41 4.97 67.32 18.30 68.00 32.88 L 68.00 36.26 C 67.50 44.93 63.72 53.40 57.34 59.33 C 48.72 67.74 35.45 70.73 23.99 67.15 C 10.61 63.20 0.65 50.35 0.00 36.42 L 0.00 30.90 C 1.16 24.39 3.55 17.97 7.91 12.90 Z" />
<path fill="#ffffff" d=" M 35.82 19.26 C 40.81 19.20 45.81 19.25 50.80 19.24 C 50.78 24.22 50.81 29.19 50.79 34.17 C 49.22 32.59 47.64 31.01 46.07 29.41 C 40.27 35.36 34.39 41.24 28.45 47.05 C 30.06 48.61 31.67 50.17 33.29 51.72 C 28.26 51.81 23.23 51.74 18.20 51.76 C 18.23 46.74 18.17 41.73 18.23 36.71 C 19.82 38.33 21.41 39.95 22.99 41.58 C 28.84 35.67 34.69 29.76 40.64 23.96 C 39.03 22.40 37.43 20.82 35.82 19.26 Z" />
<path fill="#ffffff" d=" M 0.00 36.42 C 0.65 50.35 10.61 63.20 23.99 67.15 C 35.45 70.73 48.72 67.74 57.34 59.33 C 63.72 53.40 67.50 44.93 68.00 36.26 L 68.00 69.00 L 0.00 69.00 L 0.00 36.42 Z" />
</svg>
