<?xml version="1.0" encoding="UTF-8" ?>
<!DOCTYPE svg PUBLIC "-//W3C//DTD SVG 1.1//EN" "http://www.w3.org/Graphics/SVG/1.1/DTD/svg11.dtd">
<svg width="68pt" height="69pt" viewBox="0 0 68 69" version="1.1" xmlns="http://www.w3.org/2000/svg">
<g id="#ffffffff">
<path fill="#ffffff" opacity="1.00" d=" M 0.00 0.00 L 68.00 0.00 L 68.00 31.09 C 66.95 24.98 64.86 18.92 60.98 14.01 C 54.52 5.42 43.77 0.32 33.04 0.70 C 22.70 0.92 12.64 6.20 6.59 14.58 C 3.06 19.26 1.15 24.92 0.00 30.61 L 0.00 0.00 Z" />
<path fill="#ffffff" opacity="1.00" d=" M 19.71 19.98 C 22.54 20.00 25.03 21.32 27.30 22.88 C 34.97 20.22 44.62 21.55 49.81 28.24 C 53.74 33.56 51.97 41.26 47.13 45.40 C 47.72 46.80 48.38 48.18 48.70 49.68 C 46.53 51.50 43.73 52.22 41.12 53.15 C 40.46 51.82 39.76 50.51 39.03 49.21 C 36.22 49.24 33.40 49.30 30.59 49.30 C 29.91 50.56 29.14 51.76 28.32 52.93 C 25.87 51.95 23.40 51.03 21.00 49.97 C 21.57 48.38 22.04 46.76 22.57 45.16 C 21.11 43.68 19.60 42.24 18.16 40.73 C 17.41 40.71 15.90 40.66 15.15 40.63 C 15.13 37.70 15.13 34.77 15.14 31.84 C 16.20 31.76 17.26 31.68 18.32 31.60 C 19.52 29.59 20.94 27.71 22.09 25.67 C 21.44 23.71 20.52 21.87 19.71 19.98 M 32.68 25.88 C 36.97 25.84 41.00 27.13 44.75 29.14 C 42.52 25.29 36.38 23.02 32.68 25.88 M 20.99 32.00 C 21.97 33.09 25.50 33.66 24.59 31.31 C 24.33 29.01 21.65 31.13 20.99 32.00 Z" />
<path fill="#ffffff" opacity="1.00" d=" M 0.00 36.63 C 0.75 54.02 16.47 69.08 33.95 68.64 C 51.48 69.13 67.26 54.02 68.00 36.58 L 68.00 69.00 L 0.00 69.00 L 0.00 36.63 Z" />
</g>
<g id="#6faedeff">
<path fill="#41b0e1" opacity="1.00" d=" M 6.59 14.58 C 12.64 6.20 22.70 0.92 33.04 0.70 C 43.77 0.32 54.52 5.42 60.98 14.01 C 64.86 18.92 66.95 24.98 68.00 31.09 L 68.00 36.58 C 67.26 54.02 51.48 69.13 33.95 68.64 C 16.47 69.08 0.75 54.02 0.00 36.63 L 0.00 30.61 C 1.15 24.92 3.06 19.26 6.59 14.58 M 19.71 19.98 C 20.52 21.87 21.44 23.71 22.09 25.67 C 20.94 27.71 19.52 29.59 18.32 31.60 C 17.26 31.68 16.20 31.76 15.14 31.84 C 15.13 34.77 15.13 37.70 15.15 40.63 C 15.90 40.66 17.41 40.71 18.16 40.73 C 19.60 42.24 21.11 43.68 22.57 45.16 C 22.04 46.76 21.57 48.38 21.00 49.97 C 23.40 51.03 25.87 51.95 28.32 52.93 C 29.14 51.76 29.91 50.56 30.59 49.30 C 33.40 49.30 36.22 49.24 39.03 49.21 C 39.76 50.51 40.46 51.82 41.12 53.15 C 43.73 52.22 46.53 51.50 48.70 49.68 C 48.38 48.18 47.72 46.80 47.13 45.40 C 51.97 41.26 53.74 33.56 49.81 28.24 C 44.62 21.55 34.97 20.22 27.30 22.88 C 25.03 21.32 22.54 20.00 19.71 19.98 Z" />
<path fill="#41b0e1" opacity="1.00" d=" M 32.68 25.88 C 36.38 23.02 42.52 25.29 44.75 29.14 C 41.00 27.13 36.97 25.84 32.68 25.88 Z" />
<path fill="#41b0e1" opacity="1.00" d=" M 20.99 32.00 C 21.65 31.13 24.33 29.01 24.59 31.31 C 25.50 33.66 21.97 33.09 20.99 32.00 Z" />
</g>
</svg>
