<?xml version="1.0" encoding="UTF-8" ?>
<!DOCTYPE svg PUBLIC "-//W3C//DTD SVG 1.1//EN" "http://www.w3.org/Graphics/SVG/1.1/DTD/svg11.dtd">
<svg width="68pt" height="69pt" viewBox="0 0 68 69" version="1.1" xmlns="http://www.w3.org/2000/svg">
<g id="#ffffffff">
<path fill="#ffffff" opacity="1.00" d=" M 0.00 0.00 L 68.00 0.00 L 68.00 31.19 C 66.62 21.24 61.23 11.75 52.69 6.28 C 40.90 -1.72 24.10 -1.03 13.02 7.92 C 5.85 13.40 1.53 21.86 0.00 30.64 L 0.00 0.00 Z" />
<path fill="#ffffff" opacity="1.00" d=" M 28.75 23.76 C 32.93 21.33 39.82 22.31 41.52 27.35 C 42.43 29.89 41.08 32.35 39.14 33.95 C 41.50 35.45 43.42 37.99 42.61 40.95 C 41.20 48.82 28.46 49.77 25.22 42.77 C 24.83 41.45 24.54 40.10 24.37 38.73 C 25.88 38.74 27.38 38.75 28.89 38.77 C 29.61 40.44 29.89 42.78 31.97 43.31 C 34.68 44.37 38.23 42.14 37.51 39.04 C 37.30 36.15 33.91 36.04 31.74 35.78 C 31.74 35.03 31.72 33.52 31.72 32.77 C 33.45 32.35 35.88 32.66 36.74 30.71 C 37.96 28.43 35.26 25.85 32.96 26.48 C 30.71 26.57 30.15 28.96 29.33 30.59 C 27.87 30.51 26.41 30.44 24.96 30.37 C 25.56 27.89 26.28 25.03 28.75 23.76 Z" />
<path fill="#ffffff" opacity="1.00" d=" M 0.00 36.60 C 0.61 45.15 4.33 53.48 10.64 59.33 C 18.89 67.35 31.37 70.48 42.47 67.59 C 56.53 64.18 67.27 50.97 68.00 36.54 L 68.00 69.00 L 0.00 69.00 L 0.00 36.60 Z" />
</g>
<g id="#6faedeff">
<path fill="#41b0e1" opacity="1.00" d=" M 13.02 7.92 C 24.10 -1.03 40.90 -1.72 52.69 6.28 C 61.23 11.75 66.62 21.24 68.00 31.19 L 68.00 36.54 C 67.27 50.97 56.53 64.18 42.47 67.59 C 31.37 70.48 18.89 67.35 10.64 59.33 C 4.33 53.48 0.61 45.15 0.00 36.60 L 0.00 30.64 C 1.53 21.86 5.85 13.40 13.02 7.92 M 28.75 23.76 C 26.28 25.03 25.56 27.89 24.96 30.37 C 26.41 30.44 27.87 30.51 29.33 30.59 C 30.15 28.96 30.71 26.57 32.96 26.48 C 35.26 25.85 37.96 28.43 36.74 30.71 C 35.88 32.66 33.45 32.35 31.72 32.77 C 31.72 33.52 31.74 35.03 31.74 35.78 C 33.91 36.04 37.30 36.15 37.51 39.04 C 38.23 42.14 34.68 44.37 31.97 43.31 C 29.89 42.78 29.61 40.44 28.89 38.77 C 27.38 38.75 25.88 38.74 24.37 38.73 C 24.54 40.10 24.83 41.45 25.22 42.77 C 28.46 49.77 41.20 48.82 42.61 40.95 C 43.42 37.99 41.50 35.45 39.14 33.95 C 41.08 32.35 42.43 29.89 41.52 27.35 C 39.82 22.31 32.93 21.33 28.75 23.76 Z" />
</g>
</svg>
