<?xml version="1.0" encoding="UTF-8" ?>
<!DOCTYPE svg PUBLIC "-//W3C//DTD SVG 1.1//EN" "http://www.w3.org/Graphics/SVG/1.1/DTD/svg11.dtd">
<svg width="68pt" height="69pt" viewBox="0 0 68 69" version="1.1" xmlns="http://www.w3.org/2000/svg">
<g id="#ffffffff">
<path fill="#ffffff" opacity="1.00" d=" M 0.00 0.00 L 68.00 0.00 L 68.00 31.04 C 66.57 21.40 61.48 12.17 53.29 6.68 C 42.05 -1.28 25.93 -1.28 14.69 6.70 C 6.62 12.10 1.62 21.16 0.00 30.61 L 0.00 0.00 Z" />
<path fill="#ffffff" opacity="1.00" d=" M 14.07 20.22 C 27.36 20.22 40.64 20.22 53.93 20.22 C 53.91 29.33 53.91 38.44 53.93 47.55 C 40.67 47.56 27.40 47.45 14.13 47.60 C 14.01 38.48 14.13 29.35 14.07 20.22 M 17.85 24.23 C 17.86 30.70 17.66 37.17 17.98 43.63 C 28.57 43.43 39.18 43.81 49.76 43.47 L 50.12 43.12 C 50.38 36.80 50.22 30.47 50.13 24.16 C 39.37 24.27 28.61 24.14 17.85 24.23 Z" />
<path fill="#ffffff" opacity="1.00" d=" M 26.04 31.36 C 26.31 28.10 30.93 28.81 32.60 30.58 C 32.33 32.91 32.53 35.27 32.46 37.61 C 30.66 39.39 26.00 39.95 25.65 36.62 C 27.20 36.67 28.74 36.70 30.29 36.72 C 29.56 35.47 28.30 34.72 27.25 33.77 C 28.25 32.93 29.29 32.13 30.33 31.33 C 29.26 31.34 27.12 31.35 26.04 31.36 Z" />
<path fill="#ffffff" opacity="1.00" d=" M 34.39 29.08 C 36.68 28.86 39.14 28.57 41.25 29.72 C 44.09 31.77 43.90 37.00 40.68 38.59 C 38.64 39.02 36.53 38.89 34.45 38.94 C 34.48 35.65 34.46 32.37 34.39 29.08 M 37.27 31.23 C 36.35 33.03 37.01 35.17 36.98 37.10 C 38.55 36.83 41.13 36.30 40.68 34.09 C 40.99 32.01 39.12 30.83 37.27 31.23 Z" />
<path fill="#ffffff" opacity="1.00" d=" M 0.00 36.63 C 0.76 51.02 11.47 64.15 25.48 67.59 C 36.36 70.42 48.55 67.51 56.81 59.84 C 63.41 53.95 67.38 45.41 68.00 36.61 L 68.00 69.00 L 0.00 69.00 L 0.00 36.63 Z" />
<path fill="#ffffff" opacity="1.00" d=" M 24.61 50.24 C 30.94 50.08 37.27 50.04 43.59 50.28 C 38.41 55.05 29.74 55.16 24.61 50.24 Z" />
</g>
<g id="#6faedeff">
<path fill="#41b0e1" opacity="1.00" d=" M 14.69 6.70 C 25.93 -1.28 42.05 -1.28 53.29 6.68 C 61.48 12.17 66.57 21.40 68.00 31.04 L 68.00 36.61 C 67.38 45.41 63.41 53.95 56.81 59.84 C 48.55 67.51 36.36 70.42 25.48 67.59 C 11.47 64.15 0.76 51.02 0.00 36.63 L 0.00 30.61 C 1.62 21.16 6.62 12.10 14.69 6.70 M 14.07 20.22 C 14.13 29.35 14.01 38.48 14.13 47.60 C 27.40 47.45 40.67 47.56 53.93 47.55 C 53.91 38.44 53.91 29.33 53.93 20.22 C 40.64 20.22 27.36 20.22 14.07 20.22 M 24.61 50.24 C 29.74 55.16 38.41 55.05 43.59 50.28 C 37.27 50.04 30.94 50.08 24.61 50.24 Z" />
<path fill="#41b0e1" opacity="1.00" d=" M 17.85 24.23 C 28.61 24.14 39.37 24.27 50.13 24.16 C 50.22 30.47 50.38 36.80 50.12 43.12 L 49.76 43.47 C 39.18 43.81 28.57 43.43 17.98 43.63 C 17.66 37.17 17.86 30.70 17.85 24.23 M 26.04 31.36 C 27.12 31.35 29.26 31.34 30.33 31.33 C 29.29 32.13 28.25 32.93 27.25 33.77 C 28.30 34.72 29.56 35.47 30.29 36.72 C 28.74 36.70 27.20 36.67 25.65 36.62 C 26.00 39.95 30.66 39.39 32.46 37.61 C 32.53 35.27 32.33 32.91 32.60 30.58 C 30.93 28.81 26.31 28.10 26.04 31.36 M 34.39 29.08 C 34.46 32.37 34.48 35.65 34.45 38.94 C 36.53 38.89 38.64 39.02 40.68 38.59 C 43.90 37.00 44.09 31.77 41.25 29.72 C 39.14 28.57 36.68 28.86 34.39 29.08 Z" />
<path fill="#41b0e1" opacity="1.00" d=" M 37.27 31.23 C 39.12 30.83 40.99 32.01 40.68 34.09 C 41.13 36.30 38.55 36.83 36.98 37.10 C 37.01 35.17 36.35 33.03 37.27 31.23 Z" />
</g>
</svg>
