<?xml version="1.0" encoding="UTF-8" ?>
<!DOCTYPE svg PUBLIC "-//W3C//DTD SVG 1.1//EN" "http://www.w3.org/Graphics/SVG/1.1/DTD/svg11.dtd">
<svg width="68pt" height="68pt" viewBox="0 0 68 68" version="1.1" xmlns="http://www.w3.org/2000/svg">
<path fill="#ffffff" d=" M 0.00 0.00 L 31.79 0.00 C 22.45 0.73 13.47 5.28 7.61 12.62 C 3.28 17.76 0.92 24.27 0.00 30.87 L 0.00 0.00 Z" />
<path fill="#41b0e1" d=" M 31.79 0.00 L 37.03 0.00 C 44.41 0.95 51.61 3.89 57.05 9.05 C 63.42 14.80 67.19 23.05 68.00 31.54 L 68.00 37.17 C 67.06 43.77 64.68 50.26 60.39 55.43 C 54.61 62.70 45.71 67.15 36.52 68.00 L 30.86 68.00 C 24.00 67.08 17.27 64.48 11.99 59.92 C 5.05 54.08 0.76 45.38 0.00 36.36 L 0.00 30.87 C 0.92 24.27 3.28 17.76 7.61 12.62 C 13.47 5.28 22.45 0.73 31.79 0.00 Z" />
<path fill="#ffffff" d=" M 37.03 0.00 L 68.00 0.00 L 68.00 31.54 C 67.19 23.05 63.42 14.80 57.05 9.05 C 51.61 3.89 44.41 0.95 37.03 0.00 Z" />
<path fill="#ffffff" d=" M 30.89 14.48 C 32.66 14.06 33.67 11.54 35.72 12.31 C 37.17 14.19 35.31 16.63 33.39 17.22 C 30.37 18.22 27.22 18.89 24.05 19.21 C 23.66 18.63 22.88 17.47 22.49 16.89 C 25.19 15.76 28.08 15.27 30.89 14.48 Z" />
<path fill="#ffffff" d=" M 39.23 18.28 C 41.16 17.68 44.62 16.93 44.11 20.16 C 37.98 22.37 31.46 23.43 25.09 24.82 C 23.21 25.37 22.02 22.75 23.89 21.96 C 28.87 20.28 34.15 19.62 39.23 18.28 Z" />
<path fill="#ffffff" d=" M 39.92 23.82 C 41.71 23.13 45.03 23.14 44.00 25.99 C 38.89 27.86 33.44 28.55 28.16 29.78 C 30.73 31.66 32.41 34.33 32.24 37.60 C 32.89 37.60 34.18 37.60 34.82 37.60 C 35.10 35.50 34.66 33.05 36.28 31.38 C 38.00 29.40 40.83 29.31 43.18 28.62 C 43.39 29.23 43.83 30.45 44.05 31.06 C 42.55 32.43 40.30 32.43 38.75 33.72 C 38.07 34.85 38.14 36.24 37.82 37.49 C 39.41 37.59 41.01 37.64 42.61 37.65 C 42.48 39.52 42.68 41.43 42.24 43.26 C 41.08 45.92 39.21 48.18 37.83 50.72 C 35.00 50.77 32.16 50.74 29.33 50.75 C 28.02 48.38 26.35 46.22 25.12 43.81 C 24.44 41.85 24.76 39.70 24.62 37.65 C 26.17 37.63 27.72 37.57 29.27 37.48 C 29.03 33.73 25.65 31.92 23.23 29.60 C 23.18 29.21 23.06 28.43 23.01 28.04 C 28.44 25.93 34.32 25.37 39.92 23.82 Z" />
<path fill="#ffffff" d=" M 0.00 36.36 C 0.76 45.38 5.05 54.08 11.99 59.92 C 17.27 64.48 24.00 67.08 30.86 68.00 L 0.00 68.00 L 0.00 36.36 Z" />
<path fill="#ffffff" d=" M 60.39 55.43 C 64.68 50.26 67.06 43.77 68.00 37.17 L 68.00 68.00 L 36.52 68.00 C 45.71 67.15 54.61 62.70 60.39 55.43 Z" />
<path fill="#ffffff" d=" M 28.95 52.74 C 31.98 52.45 35.05 52.39 38.09 52.62 C 35.69 55.61 31.46 55.65 28.95 52.74 Z" />
</svg>
